<mxfile host="65bd71144e">
    <diagram id="PvyKtpMCO49rUAZk4r7y" name="Page-1">
        <mxGraphModel dx="974" dy="532" grid="0" gridSize="10" guides="1" tooltips="1" connect="1" arrows="1" fold="1" page="1" pageScale="1" pageWidth="4681" pageHeight="3300" math="0" shadow="0">
            <root>
                <mxCell id="0"/>
                <mxCell id="1" parent="0"/>
                <mxCell id="11" value="192" style="rounded=0;whiteSpace=wrap;html=1;hachureGap=4;fontFamily=Helvetica;fontSize=20;sketch=1;curveFitting=1;jiggle=2;" vertex="1" parent="1">
                    <mxGeometry x="270" y="200" width="110" height="30" as="geometry"/>
                </mxCell>
                <mxCell id="12" value="168" style="rounded=0;whiteSpace=wrap;html=1;hachureGap=4;fontFamily=Helvetica;fontSize=20;sketch=1;curveFitting=1;jiggle=2;" vertex="1" parent="1">
                    <mxGeometry x="400" y="200" width="110" height="30" as="geometry"/>
                </mxCell>
                <mxCell id="14" value="2" style="rounded=0;whiteSpace=wrap;html=1;hachureGap=4;fontFamily=Helvetica;fontSize=20;sketch=1;curveFitting=1;jiggle=2;" vertex="1" parent="1">
                    <mxGeometry x="660" y="200" width="110" height="30" as="geometry"/>
                </mxCell>
                <mxCell id="15" value="&lt;p&gt;&lt;font style=&quot;font-size: 60px;&quot;&gt;.&lt;/font&gt;&lt;/p&gt;" style="text;html=1;strokeColor=none;fillColor=none;align=center;verticalAlign=middle;whiteSpace=wrap;rounded=0;hachureGap=4;fontFamily=Architects Daughter;fontSize=20;fontSource=https%3A%2F%2Ffonts.googleapis.com%2Fcss%3Ffamily%3DArchitects%2BDaughter;sketch=1;curveFitting=1;jiggle=2;" vertex="1" parent="1">
                    <mxGeometry x="380" y="190" width="20" height="50" as="geometry"/>
                </mxCell>
                <mxCell id="22" value="10" style="rounded=0;whiteSpace=wrap;html=1;hachureGap=4;fontFamily=Helvetica;fontSize=20;sketch=1;curveFitting=1;jiggle=2;" vertex="1" parent="1">
                    <mxGeometry x="530" y="200" width="110" height="30" as="geometry"/>
                </mxCell>
                <mxCell id="23" value="&lt;p&gt;&lt;font style=&quot;font-size: 60px;&quot;&gt;.&lt;/font&gt;&lt;/p&gt;" style="text;html=1;strokeColor=none;fillColor=none;align=center;verticalAlign=middle;whiteSpace=wrap;rounded=0;hachureGap=4;fontFamily=Architects Daughter;fontSize=20;fontSource=https%3A%2F%2Ffonts.googleapis.com%2Fcss%3Ffamily%3DArchitects%2BDaughter;sketch=1;curveFitting=1;jiggle=2;" vertex="1" parent="1">
                    <mxGeometry x="510" y="190" width="20" height="50" as="geometry"/>
                </mxCell>
                <mxCell id="24" value="&lt;p&gt;&lt;font style=&quot;font-size: 60px;&quot;&gt;.&lt;/font&gt;&lt;/p&gt;" style="text;html=1;strokeColor=none;fillColor=none;align=center;verticalAlign=middle;whiteSpace=wrap;rounded=0;hachureGap=4;fontFamily=Architects Daughter;fontSize=20;fontSource=https%3A%2F%2Ffonts.googleapis.com%2Fcss%3Ffamily%3DArchitects%2BDaughter;sketch=1;curveFitting=1;jiggle=2;" vertex="1" parent="1">
                    <mxGeometry x="640" y="190" width="20" height="50" as="geometry"/>
                </mxCell>
                <mxCell id="25" value="11000000" style="rounded=0;whiteSpace=wrap;html=1;hachureGap=4;fontFamily=Lucida Console;fontSize=20;sketch=1;curveFitting=1;jiggle=2;" vertex="1" parent="1">
                    <mxGeometry x="270" y="250" width="110" height="30" as="geometry"/>
                </mxCell>
                <mxCell id="26" value="10101000" style="rounded=0;whiteSpace=wrap;html=1;hachureGap=4;fontFamily=Lucida Console;fontSize=20;sketch=1;curveFitting=1;jiggle=2;" vertex="1" parent="1">
                    <mxGeometry x="400" y="250" width="110" height="30" as="geometry"/>
                </mxCell>
                <mxCell id="27" value="00000010" style="rounded=0;whiteSpace=wrap;html=1;hachureGap=4;fontFamily=Lucida Console;fontSize=20;sketch=1;curveFitting=1;jiggle=2;" vertex="1" parent="1">
                    <mxGeometry x="660" y="250" width="110" height="30" as="geometry"/>
                </mxCell>
                <mxCell id="28" value="&lt;p&gt;&lt;font style=&quot;font-size: 60px;&quot;&gt;.&lt;/font&gt;&lt;/p&gt;" style="text;html=1;strokeColor=none;fillColor=none;align=center;verticalAlign=middle;whiteSpace=wrap;rounded=0;hachureGap=4;fontFamily=Architects Daughter;fontSize=20;fontSource=https%3A%2F%2Ffonts.googleapis.com%2Fcss%3Ffamily%3DArchitects%2BDaughter;sketch=1;curveFitting=1;jiggle=2;" vertex="1" parent="1">
                    <mxGeometry x="380" y="240" width="20" height="50" as="geometry"/>
                </mxCell>
                <mxCell id="29" value="00001010" style="rounded=0;whiteSpace=wrap;html=1;hachureGap=4;fontFamily=Lucida Console;fontSize=20;sketch=1;curveFitting=1;jiggle=2;" vertex="1" parent="1">
                    <mxGeometry x="530" y="250" width="110" height="30" as="geometry"/>
                </mxCell>
                <mxCell id="30" value="&lt;p&gt;&lt;font style=&quot;font-size: 60px;&quot;&gt;.&lt;/font&gt;&lt;/p&gt;" style="text;html=1;strokeColor=none;fillColor=none;align=center;verticalAlign=middle;whiteSpace=wrap;rounded=0;hachureGap=4;fontFamily=Architects Daughter;fontSize=20;fontSource=https%3A%2F%2Ffonts.googleapis.com%2Fcss%3Ffamily%3DArchitects%2BDaughter;sketch=1;curveFitting=1;jiggle=2;" vertex="1" parent="1">
                    <mxGeometry x="510" y="240" width="20" height="50" as="geometry"/>
                </mxCell>
                <mxCell id="31" value="&lt;p&gt;&lt;font style=&quot;font-size: 60px;&quot;&gt;.&lt;/font&gt;&lt;/p&gt;" style="text;html=1;strokeColor=none;fillColor=none;align=center;verticalAlign=middle;whiteSpace=wrap;rounded=0;hachureGap=4;fontFamily=Architects Daughter;fontSize=20;fontSource=https%3A%2F%2Ffonts.googleapis.com%2Fcss%3Ffamily%3DArchitects%2BDaughter;sketch=1;curveFitting=1;jiggle=2;" vertex="1" parent="1">
                    <mxGeometry x="640" y="240" width="20" height="50" as="geometry"/>
                </mxCell>
                <mxCell id="32" value="IP(十进制)：" style="text;html=1;strokeColor=none;fillColor=none;align=center;verticalAlign=middle;whiteSpace=wrap;rounded=0;hachureGap=4;fontFamily=Helvetica;fontSize=20;sketch=1;curveFitting=1;jiggle=2;" vertex="1" parent="1">
                    <mxGeometry x="130" y="200" width="120" height="30" as="geometry"/>
                </mxCell>
                <mxCell id="33" value="IP(二进制)：" style="text;html=1;strokeColor=none;fillColor=none;align=center;verticalAlign=middle;whiteSpace=wrap;rounded=0;hachureGap=4;fontFamily=Helvetica;fontSize=20;sketch=1;curveFitting=1;jiggle=2;" vertex="1" parent="1">
                    <mxGeometry x="130" y="250" width="120" height="30" as="geometry"/>
                </mxCell>
                <mxCell id="34" value="255" style="rounded=0;whiteSpace=wrap;html=1;hachureGap=4;fontFamily=Helvetica;fontSize=20;sketch=1;curveFitting=1;jiggle=2;" vertex="1" parent="1">
                    <mxGeometry x="270" y="390" width="110" height="30" as="geometry"/>
                </mxCell>
                <mxCell id="35" value="255" style="rounded=0;whiteSpace=wrap;html=1;hachureGap=4;fontFamily=Helvetica;fontSize=20;sketch=1;curveFitting=1;jiggle=2;" vertex="1" parent="1">
                    <mxGeometry x="400" y="390" width="110" height="30" as="geometry"/>
                </mxCell>
                <mxCell id="36" value="0" style="rounded=0;whiteSpace=wrap;html=1;hachureGap=4;fontFamily=Helvetica;fontSize=20;sketch=1;curveFitting=1;jiggle=2;" vertex="1" parent="1">
                    <mxGeometry x="660" y="390" width="110" height="30" as="geometry"/>
                </mxCell>
                <mxCell id="37" value="&lt;p&gt;&lt;font style=&quot;font-size: 60px;&quot;&gt;.&lt;/font&gt;&lt;/p&gt;" style="text;html=1;strokeColor=none;fillColor=none;align=center;verticalAlign=middle;whiteSpace=wrap;rounded=0;hachureGap=4;fontFamily=Architects Daughter;fontSize=20;fontSource=https%3A%2F%2Ffonts.googleapis.com%2Fcss%3Ffamily%3DArchitects%2BDaughter;sketch=1;curveFitting=1;jiggle=2;" vertex="1" parent="1">
                    <mxGeometry x="380" y="380" width="20" height="50" as="geometry"/>
                </mxCell>
                <mxCell id="38" value="255" style="rounded=0;whiteSpace=wrap;html=1;hachureGap=4;fontFamily=Helvetica;fontSize=20;sketch=1;curveFitting=1;jiggle=2;" vertex="1" parent="1">
                    <mxGeometry x="530" y="390" width="110" height="30" as="geometry"/>
                </mxCell>
                <mxCell id="39" value="&lt;p&gt;&lt;font style=&quot;font-size: 60px;&quot;&gt;.&lt;/font&gt;&lt;/p&gt;" style="text;html=1;strokeColor=none;fillColor=none;align=center;verticalAlign=middle;whiteSpace=wrap;rounded=0;hachureGap=4;fontFamily=Architects Daughter;fontSize=20;fontSource=https%3A%2F%2Ffonts.googleapis.com%2Fcss%3Ffamily%3DArchitects%2BDaughter;sketch=1;curveFitting=1;jiggle=2;" vertex="1" parent="1">
                    <mxGeometry x="510" y="380" width="20" height="50" as="geometry"/>
                </mxCell>
                <mxCell id="40" value="&lt;p&gt;&lt;font style=&quot;font-size: 60px;&quot;&gt;.&lt;/font&gt;&lt;/p&gt;" style="text;html=1;strokeColor=none;fillColor=none;align=center;verticalAlign=middle;whiteSpace=wrap;rounded=0;hachureGap=4;fontFamily=Architects Daughter;fontSize=20;fontSource=https%3A%2F%2Ffonts.googleapis.com%2Fcss%3Ffamily%3DArchitects%2BDaughter;sketch=1;curveFitting=1;jiggle=2;" vertex="1" parent="1">
                    <mxGeometry x="640" y="380" width="20" height="50" as="geometry"/>
                </mxCell>
                <mxCell id="41" value="11111111" style="rounded=0;whiteSpace=wrap;html=1;hachureGap=4;fontFamily=Lucida Console;fontSize=20;sketch=1;curveFitting=1;jiggle=2;" vertex="1" parent="1">
                    <mxGeometry x="270" y="340" width="110" height="30" as="geometry"/>
                </mxCell>
                <mxCell id="42" value="11111111" style="rounded=0;whiteSpace=wrap;html=1;hachureGap=4;fontFamily=Lucida Console;fontSize=20;sketch=1;curveFitting=1;jiggle=2;" vertex="1" parent="1">
                    <mxGeometry x="400" y="340" width="110" height="30" as="geometry"/>
                </mxCell>
                <mxCell id="43" value="00000000" style="rounded=0;whiteSpace=wrap;html=1;hachureGap=4;fontFamily=Lucida Console;fontSize=20;sketch=1;curveFitting=1;jiggle=2;" vertex="1" parent="1">
                    <mxGeometry x="660" y="340" width="110" height="30" as="geometry"/>
                </mxCell>
                <mxCell id="44" value="&lt;p&gt;&lt;font style=&quot;font-size: 60px;&quot;&gt;.&lt;/font&gt;&lt;/p&gt;" style="text;html=1;strokeColor=none;fillColor=none;align=center;verticalAlign=middle;whiteSpace=wrap;rounded=0;hachureGap=4;fontFamily=Architects Daughter;fontSize=20;fontSource=https%3A%2F%2Ffonts.googleapis.com%2Fcss%3Ffamily%3DArchitects%2BDaughter;sketch=1;curveFitting=1;jiggle=2;" vertex="1" parent="1">
                    <mxGeometry x="380" y="330" width="20" height="50" as="geometry"/>
                </mxCell>
                <mxCell id="45" value="11111111" style="rounded=0;whiteSpace=wrap;html=1;hachureGap=4;fontFamily=Lucida Console;fontSize=20;sketch=1;curveFitting=1;jiggle=2;" vertex="1" parent="1">
                    <mxGeometry x="530" y="340" width="110" height="30" as="geometry"/>
                </mxCell>
                <mxCell id="46" value="&lt;p&gt;&lt;font style=&quot;font-size: 60px;&quot;&gt;.&lt;/font&gt;&lt;/p&gt;" style="text;html=1;strokeColor=none;fillColor=none;align=center;verticalAlign=middle;whiteSpace=wrap;rounded=0;hachureGap=4;fontFamily=Architects Daughter;fontSize=20;fontSource=https%3A%2F%2Ffonts.googleapis.com%2Fcss%3Ffamily%3DArchitects%2BDaughter;sketch=1;curveFitting=1;jiggle=2;" vertex="1" parent="1">
                    <mxGeometry x="510" y="330" width="20" height="50" as="geometry"/>
                </mxCell>
                <mxCell id="47" value="&lt;p&gt;&lt;font style=&quot;font-size: 60px;&quot;&gt;.&lt;/font&gt;&lt;/p&gt;" style="text;html=1;strokeColor=none;fillColor=none;align=center;verticalAlign=middle;whiteSpace=wrap;rounded=0;hachureGap=4;fontFamily=Architects Daughter;fontSize=20;fontSource=https%3A%2F%2Ffonts.googleapis.com%2Fcss%3Ffamily%3DArchitects%2BDaughter;sketch=1;curveFitting=1;jiggle=2;" vertex="1" parent="1">
                    <mxGeometry x="640" y="330" width="20" height="50" as="geometry"/>
                </mxCell>
                <mxCell id="48" value="子网掩码(十进制)：" style="text;html=1;strokeColor=none;fillColor=none;align=center;verticalAlign=middle;whiteSpace=wrap;rounded=0;hachureGap=4;fontFamily=Helvetica;fontSize=20;sketch=1;curveFitting=1;jiggle=2;" vertex="1" parent="1">
                    <mxGeometry x="60" y="385" width="200" height="40" as="geometry"/>
                </mxCell>
                <mxCell id="49" value="子网掩码(二进制)：" style="text;html=1;strokeColor=none;fillColor=none;align=center;verticalAlign=middle;whiteSpace=wrap;rounded=0;hachureGap=4;fontFamily=Helvetica;fontSize=20;sketch=1;curveFitting=1;jiggle=2;" vertex="1" parent="1">
                    <mxGeometry x="60" y="335" width="200" height="40" as="geometry"/>
                </mxCell>
                <mxCell id="50" value="" style="shape=curlyBracket;whiteSpace=wrap;html=1;rounded=1;flipH=1;labelPosition=right;verticalLabelPosition=middle;align=left;verticalAlign=middle;hachureGap=4;fontFamily=Helvetica;fontSize=20;direction=south;sketch=1;curveFitting=1;jiggle=2;" vertex="1" parent="1">
                    <mxGeometry x="270" y="150" width="370" height="40" as="geometry"/>
                </mxCell>
                <mxCell id="52" value="" style="shape=curlyBracket;whiteSpace=wrap;html=1;rounded=1;flipH=1;labelPosition=right;verticalLabelPosition=middle;align=left;verticalAlign=middle;hachureGap=4;fontFamily=Helvetica;fontSize=20;direction=south;sketch=1;curveFitting=1;jiggle=2;" vertex="1" parent="1">
                    <mxGeometry x="660" y="150" width="110" height="40" as="geometry"/>
                </mxCell>
                <mxCell id="53" value="网络部分" style="text;html=1;align=center;verticalAlign=middle;resizable=0;points=[];autosize=1;strokeColor=none;fillColor=none;fontSize=20;fontFamily=Lucida Console;hachureGap=4;fontSource=https%3A%2F%2Ffonts.googleapis.com%2Fcss%3Ffamily%3DArchitects%2BDaughter;sketch=1;curveFitting=1;jiggle=2;" vertex="1" parent="1">
                    <mxGeometry x="405" y="120" width="100" height="40" as="geometry"/>
                </mxCell>
                <mxCell id="54" value="主机编号" style="text;html=1;align=center;verticalAlign=middle;resizable=0;points=[];autosize=1;strokeColor=none;fillColor=none;fontSize=20;fontFamily=Lucida Console;hachureGap=4;fontSource=https%3A%2F%2Ffonts.googleapis.com%2Fcss%3Ffamily%3DArchitects%2BDaughter;sketch=1;curveFitting=1;jiggle=2;" vertex="1" parent="1">
                    <mxGeometry x="666" y="122" width="98" height="36" as="geometry"/>
                </mxCell>
                <mxCell id="56" value="" style="endArrow=classic;html=1;hachureGap=4;fontFamily=Lucida Console;fontSize=20;exitX=0.114;exitY=0.033;exitDx=0;exitDy=0;exitPerimeter=0;sketch=1;curveFitting=1;jiggle=2;" edge="1" parent="1" source="41">
                    <mxGeometry width="50" height="50" relative="1" as="geometry">
                        <mxPoint x="460" y="470" as="sourcePoint"/>
                        <mxPoint x="283" y="280" as="targetPoint"/>
                    </mxGeometry>
                </mxCell>
                <mxCell id="58" value="" style="endArrow=classic;html=1;hachureGap=4;fontFamily=Lucida Console;fontSize=20;exitX=0.884;exitY=0.038;exitDx=0;exitDy=0;exitPerimeter=0;entryX=0.881;entryY=1.032;entryDx=0;entryDy=0;entryPerimeter=0;sketch=1;curveFitting=1;jiggle=2;" edge="1" parent="1" source="45" target="29">
                    <mxGeometry width="50" height="50" relative="1" as="geometry">
                        <mxPoint x="620" y="340" as="sourcePoint"/>
                        <mxPoint x="620.46" y="279.01" as="targetPoint"/>
                    </mxGeometry>
                </mxCell>
                <mxCell id="59" value="&lt;font style=&quot;font-size: 14px;&quot;&gt;0&lt;/font&gt;" style="rounded=0;whiteSpace=wrap;html=1;hachureGap=4;fontFamily=Lucida Console;fontSize=20;sketch=1;curveFitting=1;jiggle=2;" vertex="1" parent="1">
                    <mxGeometry x="270" y="572" width="20" height="33" as="geometry"/>
                </mxCell>
                <mxCell id="60" value="&lt;font style=&quot;font-size: 14px;&quot;&gt;网络地址(7位)&lt;/font&gt;" style="rounded=0;whiteSpace=wrap;html=1;hachureGap=4;fontFamily=Lucida Console;fontSize=20;sketch=1;curveFitting=1;jiggle=2;" vertex="1" parent="1">
                    <mxGeometry x="290" y="572" width="130" height="33" as="geometry"/>
                </mxCell>
                <mxCell id="61" value="&lt;font style=&quot;font-size: 14px;&quot;&gt;主机编号(24位)&lt;/font&gt;" style="rounded=0;whiteSpace=wrap;html=1;hachureGap=4;fontFamily=Lucida Console;fontSize=20;sketch=1;curveFitting=1;jiggle=2;" vertex="1" parent="1">
                    <mxGeometry x="420" y="572" width="450" height="33" as="geometry"/>
                </mxCell>
                <mxCell id="69" value="&lt;span style=&quot;font-size: 14px;&quot;&gt;10&lt;/span&gt;" style="rounded=0;whiteSpace=wrap;html=1;hachureGap=4;fontFamily=Lucida Console;fontSize=20;sketch=1;curveFitting=1;jiggle=2;" vertex="1" parent="1">
                    <mxGeometry x="270" y="648.5" width="30" height="33" as="geometry"/>
                </mxCell>
                <mxCell id="70" value="&lt;font style=&quot;font-size: 14px;&quot;&gt;网络地址(14位)&lt;/font&gt;" style="rounded=0;whiteSpace=wrap;html=1;hachureGap=4;fontFamily=Lucida Console;fontSize=20;sketch=1;curveFitting=1;jiggle=2;" vertex="1" parent="1">
                    <mxGeometry x="300" y="648.5" width="270" height="33" as="geometry"/>
                </mxCell>
                <mxCell id="71" value="&lt;font style=&quot;font-size: 14px;&quot;&gt;主机编号(16位)&lt;/font&gt;" style="rounded=0;whiteSpace=wrap;html=1;hachureGap=4;fontFamily=Lucida Console;fontSize=20;sketch=1;curveFitting=1;jiggle=2;" vertex="1" parent="1">
                    <mxGeometry x="570" y="648.5" width="300" height="33" as="geometry"/>
                </mxCell>
                <mxCell id="72" value="&lt;span style=&quot;font-size: 14px;&quot;&gt;110&lt;/span&gt;" style="rounded=0;whiteSpace=wrap;html=1;hachureGap=4;fontFamily=Lucida Console;fontSize=20;sketch=1;curveFitting=1;jiggle=2;" vertex="1" parent="1">
                    <mxGeometry x="270" y="720" width="40" height="33" as="geometry"/>
                </mxCell>
                <mxCell id="73" value="&lt;font style=&quot;font-size: 14px;&quot;&gt;网络地址(21位)&lt;/font&gt;" style="rounded=0;whiteSpace=wrap;html=1;hachureGap=4;fontFamily=Lucida Console;fontSize=20;sketch=1;curveFitting=1;jiggle=2;" vertex="1" parent="1">
                    <mxGeometry x="310" y="720" width="410" height="33" as="geometry"/>
                </mxCell>
                <mxCell id="74" value="&lt;font style=&quot;font-size: 14px;&quot;&gt;主机编号(8位)&lt;/font&gt;" style="rounded=0;whiteSpace=wrap;html=1;hachureGap=4;fontFamily=Lucida Console;fontSize=20;sketch=1;curveFitting=1;jiggle=2;" vertex="1" parent="1">
                    <mxGeometry x="720" y="720" width="150" height="33" as="geometry"/>
                </mxCell>
                <mxCell id="75" value="&lt;span style=&quot;font-size: 14px;&quot;&gt;1110&lt;/span&gt;" style="rounded=0;whiteSpace=wrap;html=1;hachureGap=4;fontFamily=Lucida Console;fontSize=20;sketch=1;curveFitting=1;jiggle=2;" vertex="1" parent="1">
                    <mxGeometry x="270" y="800" width="50" height="33" as="geometry"/>
                </mxCell>
                <mxCell id="76" value="&lt;font style=&quot;font-size: 14px;&quot;&gt;不区分网络地址与主机地址(28位)&lt;/font&gt;" style="rounded=0;whiteSpace=wrap;html=1;hachureGap=4;fontFamily=Lucida Console;fontSize=20;sketch=1;curveFitting=1;jiggle=2;" vertex="1" parent="1">
                    <mxGeometry x="320" y="800" width="550" height="33" as="geometry"/>
                </mxCell>
                <mxCell id="78" value="&lt;span style=&quot;font-size: 14px;&quot;&gt;11110&lt;/span&gt;" style="rounded=0;whiteSpace=wrap;html=1;hachureGap=4;fontFamily=Lucida Console;fontSize=20;sketch=1;curveFitting=1;jiggle=2;" vertex="1" parent="1">
                    <mxGeometry x="270" y="880" width="60" height="33" as="geometry"/>
                </mxCell>
                <mxCell id="79" value="&lt;font style=&quot;font-size: 14px;&quot;&gt;不区分网络地址与主机地址(27位)&lt;/font&gt;" style="rounded=0;whiteSpace=wrap;html=1;hachureGap=4;fontFamily=Lucida Console;fontSize=20;sketch=1;curveFitting=1;jiggle=2;" vertex="1" parent="1">
                    <mxGeometry x="330" y="880" width="540" height="33" as="geometry"/>
                </mxCell>
                <mxCell id="80" value="A类：" style="text;strokeColor=none;fillColor=none;html=1;fontSize=14;fontStyle=0;verticalAlign=middle;align=center;sketch=1;curveFitting=1;jiggle=2;" vertex="1" parent="1">
                    <mxGeometry x="210" y="573.5" width="60" height="30" as="geometry"/>
                </mxCell>
                <mxCell id="81" value="B类：" style="text;strokeColor=none;fillColor=none;html=1;fontSize=14;fontStyle=0;verticalAlign=middle;align=center;sketch=1;curveFitting=1;jiggle=2;" vertex="1" parent="1">
                    <mxGeometry x="210" y="650" width="60" height="30" as="geometry"/>
                </mxCell>
                <mxCell id="82" value="C类：" style="text;strokeColor=none;fillColor=none;html=1;fontSize=14;fontStyle=0;verticalAlign=middle;align=center;sketch=1;curveFitting=1;jiggle=2;" vertex="1" parent="1">
                    <mxGeometry x="210" y="721.5" width="60" height="30" as="geometry"/>
                </mxCell>
                <mxCell id="83" value="D类：" style="text;strokeColor=none;fillColor=none;html=1;fontSize=14;fontStyle=0;verticalAlign=middle;align=center;sketch=1;curveFitting=1;jiggle=2;" vertex="1" parent="1">
                    <mxGeometry x="210" y="801.5" width="60" height="30" as="geometry"/>
                </mxCell>
                <mxCell id="84" value="E类：" style="text;strokeColor=none;fillColor=none;html=1;fontSize=14;fontStyle=0;verticalAlign=middle;align=center;sketch=1;curveFitting=1;jiggle=2;" vertex="1" parent="1">
                    <mxGeometry x="210" y="881.5" width="60" height="30" as="geometry"/>
                </mxCell>
                <mxCell id="86" value="0.0.0.0~127.255.255.255" style="text;html=1;strokeColor=none;fillColor=none;align=center;verticalAlign=middle;whiteSpace=wrap;rounded=0;fontSize=14;sketch=1;curveFitting=1;jiggle=2;" vertex="1" parent="1">
                    <mxGeometry x="890" y="573.5" width="180" height="30" as="geometry"/>
                </mxCell>
                <mxCell id="87" value="128.0.0.0~191.255.255.255" style="text;html=1;strokeColor=none;fillColor=none;align=center;verticalAlign=middle;whiteSpace=wrap;rounded=0;fontSize=14;sketch=1;curveFitting=1;jiggle=2;" vertex="1" parent="1">
                    <mxGeometry x="880" y="650" width="200" height="30" as="geometry"/>
                </mxCell>
                <mxCell id="88" value="192.0.0.0~223.255.255.255" style="text;html=1;strokeColor=none;fillColor=none;align=center;verticalAlign=middle;whiteSpace=wrap;rounded=0;fontSize=14;sketch=1;curveFitting=1;jiggle=2;" vertex="1" parent="1">
                    <mxGeometry x="880" y="720" width="200" height="30" as="geometry"/>
                </mxCell>
                <mxCell id="89" value="224.0.0.0~239.255.255.255" style="text;html=1;strokeColor=none;fillColor=none;align=center;verticalAlign=middle;whiteSpace=wrap;rounded=0;fontSize=14;sketch=1;curveFitting=1;jiggle=2;" vertex="1" parent="1">
                    <mxGeometry x="880" y="801.5" width="200" height="30" as="geometry"/>
                </mxCell>
                <mxCell id="90" value="240.0.0.0~255.255.255.255" style="text;html=1;strokeColor=none;fillColor=none;align=center;verticalAlign=middle;whiteSpace=wrap;rounded=0;fontSize=14;sketch=1;curveFitting=1;jiggle=2;" vertex="1" parent="1">
                    <mxGeometry x="880" y="883" width="200" height="30" as="geometry"/>
                </mxCell>
                <mxCell id="91" value="适用于大量主机的大型网络" style="text;html=1;strokeColor=none;fillColor=none;align=center;verticalAlign=middle;whiteSpace=wrap;rounded=0;fontSize=14;sketch=1;curveFitting=1;jiggle=2;" vertex="1" parent="1">
                    <mxGeometry x="460" y="542" width="190" height="30" as="geometry"/>
                </mxCell>
                <mxCell id="92" value="适用于中等规模主机数的网络" style="text;html=1;strokeColor=none;fillColor=none;align=center;verticalAlign=middle;whiteSpace=wrap;rounded=0;fontSize=14;sketch=1;curveFitting=1;jiggle=2;" vertex="1" parent="1">
                    <mxGeometry x="460" y="620" width="190" height="30" as="geometry"/>
                </mxCell>
                <mxCell id="93" value="小型局域网" style="text;html=1;strokeColor=none;fillColor=none;align=center;verticalAlign=middle;whiteSpace=wrap;rounded=0;fontSize=14;sketch=1;curveFitting=1;jiggle=2;" vertex="1" parent="1">
                    <mxGeometry x="460" y="690" width="190" height="30" as="geometry"/>
                </mxCell>
                <mxCell id="94" value="留给Internet体系结构委员会(IAB)使用[组播地址]" style="text;html=1;strokeColor=none;fillColor=none;align=center;verticalAlign=middle;whiteSpace=wrap;rounded=0;fontSize=14;sketch=1;curveFitting=1;jiggle=2;" vertex="1" parent="1">
                    <mxGeometry x="385" y="770" width="340" height="30" as="geometry"/>
                </mxCell>
                <mxCell id="95" value="保留，仅作为搜索、Internet的实验和开发用" style="text;html=1;strokeColor=none;fillColor=none;align=center;verticalAlign=middle;whiteSpace=wrap;rounded=0;fontSize=14;sketch=1;curveFitting=1;jiggle=2;" vertex="1" parent="1">
                    <mxGeometry x="385" y="850" width="340" height="30" as="geometry"/>
                </mxCell>
                <mxCell id="98" value="IP地址范围" style="text;html=1;strokeColor=none;fillColor=none;align=center;verticalAlign=middle;whiteSpace=wrap;rounded=0;fontSize=14;sketch=1;curveFitting=1;jiggle=2;" vertex="1" parent="1">
                    <mxGeometry x="936.5" y="542" width="87" height="29" as="geometry"/>
                </mxCell>
            </root>
        </mxGraphModel>
    </diagram>
</mxfile>